<?xml version="1.0" encoding="UTF-8" standalone="no"?>
<!-- Created with Inkscape (http://www.inkscape.org/) -->

<svg
   xmlns:dc="http://purl.org/dc/elements/1.1/"
   xmlns:cc="http://creativecommons.org/ns#"
   xmlns:rdf="http://www.w3.org/1999/02/22-rdf-syntax-ns#"
   xmlns:svg="http://www.w3.org/2000/svg"
   xmlns="http://www.w3.org/2000/svg"
   xmlns:sodipodi="http://sodipodi.sourceforge.net/DTD/sodipodi-0.dtd"
   xmlns:inkscape="http://www.inkscape.org/namespaces/inkscape"
   width="209.50517mm"
   height="209.50517mm"
   viewBox="0 0 209.50517 209.50517"
   version="1.1"
   id="svg8"
   inkscape:version="0.92.2 (5c3e80d, 2017-08-06)"
   sodipodi:docname="default.svg">
  <defs
     id="defs2" />
  <sodipodi:namedview
     id="base"
     pagecolor="#ffffff"
     bordercolor="#666666"
     borderopacity="1.0"
     inkscape:pageopacity="0.0"
     inkscape:pageshadow="2"
     inkscape:zoom="0.35"
     inkscape:cx="-64.084714"
     inkscape:cy="394.4867"
     inkscape:document-units="mm"
     inkscape:current-layer="layer1"
     showgrid="false"
     fit-margin-top="0"
     fit-margin-left="0"
     fit-margin-right="0"
     fit-margin-bottom="0"
     inkscape:window-width="1366"
     inkscape:window-height="705"
     inkscape:window-x="-8"
     inkscape:window-y="-8"
     inkscape:window-maximized="1" />
  <metadata
     id="metadata5">
    <rdf:RDF>
      <cc:Work
         rdf:about="">
        <dc:format>image/svg+xml</dc:format>
        <dc:type
           rdf:resource="http://purl.org/dc/dcmitype/StillImage" />
        <dc:title></dc:title>
      </cc:Work>
    </rdf:RDF>
  </metadata>
  <g
     inkscape:label="Layer 1"
     inkscape:groupmode="layer"
     id="layer1"
     transform="translate(0.05318129,-43.702767)">
    <g
       id="g879"
       transform="matrix(0.14683498,0,0,0.14683498,66.344388,107.07653)">
      <g
         id="g821">
        <g
           id="g819">
          <path
             id="path815"
             d="M 526.76,131.045 C 512.483,116.771 495.262,109.632 475.085,109.632 H 411.132 L 396.574,70.806 C 392.956,61.481 386.345,53.438 376.728,46.678 367.115,39.921 357.266,36.54 347.177,36.54 H 200.996 c -10.088,0 -19.939,3.381 -29.552,10.138 -9.613,6.76 -16.225,14.803 -19.842,24.128 l -14.56,38.826 H 73.089 c -20.179,0 -37.401,7.139 -51.678,21.413 C 7.137,145.32 0,162.544 0,182.721 v 255.813 c 0,20.178 7.137,37.404 21.411,51.675 14.277,14.277 31.5,21.416 51.678,21.416 h 401.989 c 20.177,0 37.397,-7.139 51.675,-21.416 14.273,-14.271 21.412,-31.497 21.412,-51.675 V 182.721 C 548.169,162.544 541.03,145.32 526.76,131.045 Z M 364.446,400.993 c -25.029,25.03 -55.147,37.548 -90.362,37.548 -35.215,0 -65.331,-12.518 -90.362,-37.548 -25.031,-25.026 -37.544,-55.151 -37.544,-90.358 0,-35.218 12.517,-65.333 37.544,-90.364 25.028,-25.031 55.148,-37.544 90.362,-37.544 35.214,0 65.333,12.516 90.362,37.544 25.03,25.028 37.545,55.146 37.545,90.364 0,35.207 -12.514,65.329 -37.545,90.358 z"
             inkscape:connector-curvature="0" />
          <path
             id="path817"
             d="m 274.084,228.403 c -22.651,0 -42.018,8.042 -58.102,24.128 -16.084,16.084 -24.126,35.448 -24.126,58.104 0,22.647 8.042,42.014 24.126,58.098 16.084,16.081 35.45,24.123 58.102,24.123 22.648,0 42.017,-8.042 58.101,-24.123 16.084,-16.084 24.127,-35.45 24.127,-58.098 0,-22.655 -8.043,-42.019 -24.127,-58.104 -16.083,-16.085 -35.453,-24.128 -58.101,-24.128 z"
             inkscape:connector-curvature="0" />
        </g>
      </g>
      <g
         id="g823" />
      <g
         id="g825" />
      <g
         id="g827" />
      <g
         id="g829" />
      <g
         id="g831" />
      <g
         id="g833" />
      <g
         id="g835" />
      <g
         id="g837" />
      <g
         id="g839" />
      <g
         id="g841" />
      <g
         id="g843" />
      <g
         id="g845" />
      <g
         id="g847" />
      <g
         id="g849" />
      <g
         id="g851" />
    </g>
    <rect
       style="opacity:1;fill:#e6e6e6;fill-opacity:0.77254902;stroke:#000000;stroke-width:0.10522348;stroke-miterlimit:4;stroke-dasharray:none;stroke-opacity:1"
       id="rect881"
       width="209.39995"
       height="209.39995"
       x="-0.00056954985"
       y="43.755379" />
  </g>
</svg>
