<?xml version="1.0" encoding="UTF-8" standalone="no"?>
<!-- Created with Inkscape (http://www.inkscape.org/) -->

<svg
   xmlns:dc="http://purl.org/dc/elements/1.1/"
   xmlns:cc="http://creativecommons.org/ns#"
   xmlns:rdf="http://www.w3.org/1999/02/22-rdf-syntax-ns#"
   xmlns:svg="http://www.w3.org/2000/svg"
   xmlns="http://www.w3.org/2000/svg"
   xmlns:sodipodi="http://sodipodi.sourceforge.net/DTD/sodipodi-0.dtd"
   xmlns:inkscape="http://www.inkscape.org/namespaces/inkscape"
   width="310mm"
   height="150mm"
   viewBox="0 0 309.99999 150"
   version="1.1"
   id="svg8"
   inkscape:version="0.92.3 (2405546, 2018-03-11)"
   sodipodi:docname="logo.svg"
   inkscape:export-filename="C:\xampp\htdocs\Bitcryptoinvestors\images\icon\icon-310x150.png"
   inkscape:export-xdpi="25.4"
   inkscape:export-ydpi="25.4">
  <defs
     id="defs2" />
  <sodipodi:namedview
     id="base"
     pagecolor="#ffffff"
     bordercolor="#666666"
     borderopacity="1.0"
     inkscape:pageopacity="0.0"
     inkscape:pageshadow="2"
     inkscape:zoom="0.61166134"
     inkscape:cx="489.81837"
     inkscape:cy="38.590772"
     inkscape:document-units="mm"
     inkscape:current-layer="layer1"
     showgrid="false"
     inkscape:window-width="1366"
     inkscape:window-height="716"
     inkscape:window-x="-8"
     inkscape:window-y="-8"
     inkscape:window-maximized="1"
     fit-margin-top="0"
     fit-margin-left="0"
     fit-margin-right="0"
     fit-margin-bottom="0" />
  <metadata
     id="metadata5">
    <rdf:RDF>
      <cc:Work
         rdf:about="">
        <dc:format>image/svg+xml</dc:format>
        <dc:type
           rdf:resource="http://purl.org/dc/dcmitype/StillImage" />
        <dc:title></dc:title>
      </cc:Work>
    </rdf:RDF>
  </metadata>
  <g
     inkscape:label="Layer 1"
     inkscape:groupmode="layer"
     id="layer1"
     transform="translate(-16.004908,-94.65963)">
    <rect
       style="fill:#111111;fill-opacity:1;stroke-width:0.26458332"
       id="rect844"
       width="111.16922"
       height="111.16922"
       x="12.976953"
       y="262.39481"
       inkscape:export-filename="C:\xampp\htdocs\Bitcryptoinvestors\images\icon\icon-150x150.png"
       inkscape:export-xdpi="34.27"
       inkscape:export-ydpi="34.27" />
    <rect
       style="fill:#111111;fill-opacity:1;stroke-width:0.56366575"
       id="rect821"
       width="310"
       height="150"
       x="16.004908"
       y="94.65963"
       inkscape:export-filename="C:\xampp\htdocs\Bitcryptoinvestors\images\icon\icon-310x150.png"
       inkscape:export-xdpi="25.4"
       inkscape:export-ydpi="25.4" />
    <path
       id="path815"
       d="m 68.152729,281.45226 c 19.861004,0 36.019251,16.15825 36.019251,36.01925 0,19.86101 -16.158247,36.01925 -36.019251,36.01925 -19.861006,0 -36.019257,-16.15824 -36.019257,-36.01925 0,-19.861 16.158251,-36.01925 36.019257,-36.01925 z m 0,-7.20391 c -23.869939,0 -43.223161,19.35322 -43.223161,43.22316 0,23.87008 19.353222,43.22317 43.223161,43.22317 23.870074,0 43.223161,-19.35309 43.223161,-43.22317 0,-23.86994 -19.353087,-43.22316 -43.223161,-43.22316 z m -1.80094,45.01335 v 9.0156 c 7.146183,0 12.044893,-0.6766 12.044893,-4.53114 0,-4.13514 -5.29133,-4.48446 -12.044893,-4.48446 z m 10.045733,-8.09355 c 0,-3.60189 -3.74237,-4.50243 -10.045733,-4.50243 v 9.00485 c 3.980067,0 10.045733,-0.28044 10.045733,-4.50242 z m -8.244793,-26.11401 c -17.905147,0 -32.417372,14.51222 -32.417372,32.41737 0,17.90528 14.512225,32.41737 32.417372,32.41737 17.905274,0 32.417371,-14.51209 32.417371,-32.41737 0,-17.90515 -14.512097,-32.41737 -32.417371,-32.41737 z m 3.601883,48.62613 v 5.40282 h -3.601883 v -5.44244 h -1.80094 v 5.44244 h -3.601887 v -5.44244 h -8.947265 l 0.89986,-5.36335 h 1.941433 c 1.591972,0 2.503267,-1.53084 2.503267,-3.07599 v -16.007 c 0,-1.49845 -0.871271,-2.52859 -2.460107,-2.52859 h -2.942719 v -5.40283 h 9.004851 v -5.40296 h 3.601887 v 5.40296 h 1.80094 v -5.40296 h 3.601883 v 5.49663 c 7.773091,0.26274 10.849081,3.20926 11.731511,6.52662 1.04417,3.92617 -1.54514,7.22188 -3.76756,8.02508 2.70148,0.69157 6.44386,2.68705 6.44386,7.29757 0,6.27096 -4.84099,10.47444 -14.407811,10.47444 z"
       inkscape:connector-curvature="0"
       style="fill:#ff6600;stroke-width:3.60193014"
       inkscape:export-filename="C:\xampp\htdocs\Bitcryptoinvestors\images\icon\icon-150x150.png"
       inkscape:export-xdpi="34.27"
       inkscape:export-ydpi="34.27" />
    <text
       xml:space="preserve"
       style="font-style:normal;font-variant:normal;font-weight:normal;font-stretch:normal;font-size:37.14317703px;line-height:1.25;font-family:'Eras Bold ITC';-inkscape-font-specification:'Eras Bold ITC';letter-spacing:0px;word-spacing:0px;fill:#ffe6d5;fill-opacity:1;stroke:none;stroke-width:0.19345404"
       x="136.76927"
       y="168.23582"
       id="text828"
       inkscape:export-filename="C:\xampp\htdocs\Bitcryptoinvestors\images\icon\icon-310x150.png"
       inkscape:export-xdpi="25.4"
       inkscape:export-ydpi="25.4"><tspan
         sodipodi:role="line"
         x="136.76927"
         y="168.23582"
         style="font-style:normal;font-variant:normal;font-weight:normal;font-stretch:normal;font-family:'Eras Bold ITC';-inkscape-font-specification:'Eras Bold ITC';word-spacing:-0.96727031px;fill:#ffe6d5;stroke-width:0.19345404"
         id="tspan830">BitCryto</tspan><tspan
         sodipodi:role="line"
         x="136.76927"
         y="214.66479"
         style="font-style:normal;font-variant:normal;font-weight:normal;font-stretch:normal;font-size:30.95264626px;font-family:'Eras Bold ITC';-inkscape-font-specification:'Eras Bold ITC';letter-spacing:0px;word-spacing:0px;fill:#ffe6d5;stroke-width:0.19345404"
         id="tspan832"
         dx="3.7581875"
         rotate="5.5 5.5 5.5 5.5 5.5 5.5 5.5 5.5 5.5 0"
         dy="-18.520407">Investors</tspan></text>
  </g>
</svg>
